<svg width="111" height="121" viewBox="0 0 111 121" fill="none" xmlns="http://www.w3.org/2000/svg">
<path fill-rule="evenodd" clip-rule="evenodd" d="M52.196 3.199C53.948 6.368 53.941 6.413 51.505 8.062C44.346 12.908 43.236 14.396 43.862 18.312C44.191 20.368 44.706 22.693 45.007 23.477C45.45 24.631 44.256 24.887 38.759 24.815L31.964 24.726L30.358 19.887L28.753 15.047L27.108 19.157C25.08 24.226 25.029 27.159 26.921 29.861C28.134 31.592 29.18 31.873 33.171 31.539C39.0602 31.0455 39.6888 31.9959 36.12 34.1636C32.8998 36.1196 29.9473 38.5239 27.9434 41.7146C26.0301 44.761 26.064 44.2029 26.064 39.696C26.064 36.893 25.745 36.3 24.514 36.819C17.283 39.866 17.404 39.864 15.128 37.048C13.938 35.576 12.155 33.213 11.167 31.798C8.956 28.633 6.606 28.541 2.867 31.476L0 33.726L3.482 34.226C6.92 34.72 6.972 34.801 7.601 40.657C8.305 47.217 9.47799 48.614 15.681 50.284L19.459 51.302L16.921 56.311C13.935 62.203 12.549 62.929 7.07 61.466C4.821 60.866 2.859 60.498 2.709 60.647C2.56 60.797 4.434 63.064 6.875 65.685C10.927 70.036 11.651 70.418 15.201 70.08L19.088 69.709L18.674 75.217C18.173 81.881 16.758 83.226 10.251 83.226C6.081 83.226 5.267 83.564 4.292 85.705C3.505 87.431 3.464 89.176 4.157 91.455L5.152 94.726L6.469 91.976C8.038 88.698 9.28 88.582 14.464 91.226C19.802 93.949 21.794 93.753 25.963 90.093C27.925 88.37 29.647 87.132 29.789 87.343C33.31 92.57 35.464 96.49 35.464 97.67C35.464 98.487 34.009 100.814 32.23 102.84L28.996 106.523L33.98 105.776C40.499 104.798 42.091 103.859 44.206 99.74L45.964 96.315L50.714 99.273C56.09 102.619 56.681 104.868 53.464 109.726C52.371 111.376 51.474 113.444 51.471 114.321C51.462 116.466 54.319 118.909 57.875 119.797C60.77 120.52 60.777 120.511 59.125 118.152C56.657 114.629 57.023 113.674 61.954 110.785C66.851 107.915 68.075 105.294 67.055 99.861L66.426 96.509L71.624 95.893C77.919 95.148 79.12 95.974 80.665 102.11L81.824 106.714L83.618 102.72C85.967 97.489 85.948 92.112 83.57 89.088L81.677 86.681L86.841 84.097C93.101 80.964 95.892 81.612 98.015 86.693C99.884 91.166 103.549 92.3 107.238 89.545C110.949 86.775 110.943 85.705 107.217 85.716C103.975 85.726 103.962 85.707 103.444 79.871C102.86 73.301 100.764 70.748 95.083 69.682L91.845 69.075L94.331 64.051C95.698 61.288 97.446 58.786 98.215 58.491C98.985 58.196 101.424 58.497 103.636 59.16C105.849 59.822 107.873 60.151 108.134 59.889C108.396 59.627 106.629 57.346 104.208 54.82C100.443 50.89 99.24 50.226 95.885 50.227H91.964L92.293 44.977C92.691 38.638 94.177 37.226 100.455 37.226C102.99 37.226 105.604 36.686 106.264 36.026C107.613 34.677 107.732 30.738 106.516 27.726C105.758 25.851 105.628 25.897 104.425 28.476C102.897 31.754 101.649 31.871 96.464 29.226C91.126 26.503 89.134 26.699 84.965 30.359C83.003 32.082 81.283 33.32 81.144 33.109C81.004 32.898 79.669 30.902 78.177 28.672C74.669 23.431 74.758 21.564 78.714 17.4L81.964 13.978L77.964 14.643C71.031 15.794 68.606 17.233 66.837 21.241L65.165 25.032L60.564 21.802C55.215 18.047 54.489 15.539 57.392 10.842C58.532 8.998 59.464 6.825 59.464 6.013C59.464 4.003 56.549 1.528 53.196 0.691L50.427 0L52.196 3.199Z" fill="url(#paint0_linear_3200_332)"/>
<circle cx="56.5" cy="62" r="29.5" fill="url(#paint1_radial_3200_332)"/>
<path d="M48.5332 76.5H41L52.4784 44.5H61.5378L73 76.5H65.4668L57.138 51.8125H56.8782L48.5332 76.5ZM48.0624 63.9219H65.8564V69.2031H48.0624V63.9219Z" fill="#C8FF00"/>
<defs>
<linearGradient id="paint0_linear_3200_332" x1="55.0082" y1="0" x2="55.0082" y2="120.218" gradientUnits="userSpaceOnUse">
<stop stop-color="#F9C500"/>
<stop offset="1" stop-color="#F9BD2F"/>
</linearGradient>
<radialGradient id="paint1_radial_3200_332" cx="0" cy="0" r="1" gradientUnits="userSpaceOnUse" gradientTransform="translate(42 59.5) rotate(65.6235) scale(35.1319)">
<stop stop-color="#F9BB2F"/>
<stop offset="1" stop-color="#F79B21"/>
</radialGradient>
</defs>
</svg>
